<?xml version="1.0" encoding="UTF-8"?>
<svg id="_图层_1" data-name="图层 1" xmlns="http://www.w3.org/2000/svg" xmlns:xlink="http://www.w3.org/1999/xlink" viewBox="0 0 1451.34 1451.34">
  <defs>
    <style>
      .cls-1 {
        fill: #b2dfdb;
      }

      .cls-1, .cls-2, .cls-3, .cls-4, .cls-5, .cls-6 {
        stroke-width: 0px;
      }

      .cls-2 {
        fill: none;
      }

      .cls-7 {
        clip-path: url(#clippath-1);
      }

      .cls-3 {
        fill: #81fcf0;
      }

      .cls-4 {
        fill: url(#_未命名的渐变_13);
      }

      .cls-5 {
        fill: #fff;
      }

      .cls-8 {
        clip-path: url(#clippath);
      }

      .cls-6 {
        fill: #26a69b;
      }
    </style>
    <linearGradient id="_未命名的渐变_13" data-name="未命名的渐变 13" x1="1238.43" y1="212.92" x2="212.18" y2="1239.18" gradientUnits="userSpaceOnUse">
      <stop offset="0" stop-color="#4db6ac"/>
      <stop offset="1" stop-color="#00897b"/>
    </linearGradient>
    <clipPath id="clippath">
      <rect class="cls-2" x="0" y="0" width="1451.34" height="1451.34" rx="725.67" ry="725.67"/>
    </clipPath>
    <clipPath id="clippath-1">
      <path class="cls-2" d="M822.97,554.01c-2.42,4.16-5.93,7.72-5.94,13.13-.01,7.31-.37,14.64,1.84,21.75.65,2.09,1.52,4.12,2.56,6.9-9.55-8.7-16.94-17.91-20.06-30.18-3.68,7.36-4.88,14.96-4.12,23.57-4.94-5.99-7.42-12.31-7.77-19.32-.59-11.66,1.85-22.66,8.17-32.64.87-1.38,1.12-2.87,1.13-4.46.05-6.81-.38-13.65,1.05-20.39.12-.55.24-1.23-.34-1.6-.55-.34-.91.17-1.17.56-3.97,5.88-8.36,11.53-10.07,18.66-.3,1.24.31,2.49-.3,3.69-1.53-.13-1.23-1.96-2.66-2.5-.32,1.68-.62,3.32-.94,4.96-.22,1.12-.16,2.57-1.43,2.98-1.37.44-2.29-.74-3.23-1.58-2.68-2.41-4.4-5.47-5.68-8.76-4.2-10.76-5.26-21.88-3.57-33.29.1-.67.21-1.35.26-2.02.03-.37-.06-.76-.12-1.35-1.32.46-1.85,1.57-2.48,2.43-5.58,7.62-10.44,15.55-10.6,25.43,0,.58.1,1.4-.6,1.45-.96.06-1.15-.91-1.35-1.64-2.01-7.25-1.89-14.46.66-21.55,3.19-8.85,9.29-15.72,15.77-22.22,5.22-5.24,10.89-10.02,15.66-15.73,5.44-6.51,9.45-13.79,12.14-21.83,1.34-4.02,2.68-4.62,6.56-3.36,4,1.3,3.89,1.24,5.97-2.35,4.94-8.52,10.25-16.79,16.26-24.62,5.41-7.04,12.31-8.86,20.68-6.79,3.11.77,6.31,1.23,9.3,2.45,2.02.83,3.3.35,4.7-1.43,3.07-3.89,6.54-7.46,9.72-11.28,4.94-5.93,11.47-6.55,18.36-5.44,13.61,2.18,26.27,7.16,38.3,13.76,2.77,1.52,5.77,2.32,8.64,3.51,4.06,1.67,8.12,3.34,11.77,5.8,1.9,1.28,2.81.89,3.7-1.12,1.39-3.15,3.63-5.73,6.07-8.16,2.15-2.14,4.41-2.57,7.15-1.28,2.67,1.25,5.05,2.91,7.45,4.58,8.24,5.73,14.83,13.23,21.39,20.65,4.84,5.48,10.83,9.47,16.09,14.36,7.99,7.45,15.48,15.34,18.12,26.5.57,2.41.62,4.82.02,7.23-.19.74-.33,1.74-1.2,1.84-1.03.11-1.04-1.02-1.28-1.69-1.2-3.33-2.99-6.23-6.39-9.17,1.79,6.28,3.86,11.68,2.7,17.5-1.63-6.37-5.28-11.41-10.07-16.86,1.19,9.25,3.49,17.68.68,26.15-2.1-11.58-9.59-19.89-16.33-28.82-3.85-5.1-9.51-5.57-14.34-8.14-1.22-.65-1.58.15-1.31,1.28,4.43,18.33,6.78,37.19,15.21,54.45,4.95,10.14,10.47,20.03,14.52,30.59.66,1.72,1.13,3.52,1.62,5.3.21.74.37,1.63-.4,2.14-.81.53-1.5-.11-2.09-.59-4.81-3.84-9.94-7.19-15.24-10.29-3.42-2-6.99-3.75-10.39-5.56-.95.94-.45,1.59-.2,2.15,3.77,8.57,6.34,17.6,10.31,26.09.88,1.89.46,2.91-1.75,2.49-5.07-.96-10.11-2.04-14.9-4.05-3.03-1.27-5.44-3.34-7.8-5.85,0,4.58.01,8.88,0,13.18-.01,3.22-.49,6.4-1.07,9.56-.15.85-.22,1.95-1.23,2.12-1.28.22-1.51-1.07-1.85-1.9-1.87-4.62-4.31-8.96-6.59-13.37-.43-.84-.69-1.82-1.92-2.43-.87,3.54-1.68,7-2.58,10.44-.46,1.78-.84,3.63-1.95,5.16-.39.54-.85,1.16-1.66.94-.65-.17-.83-.83-.94-1.38-.4-1.9-.68-3.83-1.08-5.74-.11-.53-.25-1.28-.96-1.31-.71-.03-.84.67-1.05,1.21-.48,1.28-1.01,2.54-1.44,3.83-.32.98-.33,2.04.71,2.58,4.13,2.15,5.05,6.24,6.15,10.17.68,2.42,1.81,4.21,3.79,5.92,5.47,4.75,8.09,11.3,10.22,18.07,4.07,12.94,6.77,26.18,9.27,39.49,1.58,8.41,3.69,16.74,4.87,25.21,1.03,7.4.15,14.8-4.36,21.15-2.32,3.26-5.85,5.07-9.63,6.24-2.46.76-4.63-.13-6.55-1.61-3.93-3.04-7.64-6.35-11.07-9.94-1.81-1.9-1.83-4.42-2.05-6.85-1.37-15.06-4.21-29.85-8.15-44.43-.12-.45-.15-.97-.87-1.27-1.64,2.64-1.52,5.76-2.28,8.59-2.35,8.74-4.39,17.57-5.69,26.55-.75,5.16-.66,10.27,1.02,15.3,4.69,14.05,8.79,28.26,10.7,43,.4,3.08.66,6.18.84,9.29.98,16.93,1.56,33.88,1.03,50.83-.34,10.78-1.19,21.55-2.04,32.32-.83,10.57-2.29,21.08-2.56,31.7-.1,4.08,1.82,6.57,5.12,9.06,11.01,8.3,23,15.44,32.4,25.7,5.85,6.39,8.94,14.54,12.76,22.2,6.66,13.33,9.62,27.95,14.72,41.81,3.63,9.88,5.72,20.27,9.82,29.94,2.61,6.16,5.97,12.04,10.45,17.14,1.09,1.24,1.74,2.49,1.36,4.23-.42,1.89.28,3.62.96,5.37,3,7.69,6.72,15.15,7.99,23.43.49,3.17.78,6.37,1.22,9.55.24,1.76-1.04,2.89-1.66,4.27-2.95,6.62-7.08,12.12-14.38,14.4-1.05.33-1.42,1.25-2,2.02-2.28,3.04-4.51,3.54-7.46,1.24-1.62-1.26-2.75-1.2-4.37-.18-2.01,1.26-4.2,1.47-6.3-.04-.39-.28-.87-.73-1.26-.69-5.34.52-9.95-2.77-15.23-2.82-4.99-.05-9.98-.7-14.75-2.33-1.18-.4-2.35-1.04-3.3-1.84-1.72-1.45-2.44-3.21-.98-5.38,2.98-4.42,6.39-7.94,12.26-8.33,5.52-.36,8.89-3.92,10.93-8.86,1.62-3.91,2.24-8.06,2.83-12.2.24-1.68.01-3.27-1.17-4.66-2.13-2.5-.98-5.66-1.43-8.48-1.64-10.28-5.55-19.6-10.78-28.51-10.21-17.39-21.51-34.06-32.82-50.73-10.65-15.7-21.5-31.31-30.97-47.79-5.67-9.87-8.75-20.77-11.62-31.7-2.99-11.44-3.78-23.21-5.31-34.88-1.22-9.27-1.85-18.58-2.72-27.88-.57-6.14.62-12.25.49-18.4-.05-2.22-.94-3.33-2.66-4.68-4.95-3.88-9.54-4.18-15.22-1.16-3.24,1.73-5.08,3.36-5.86,6.94-3.29,15.08-7.88,29.86-14.8,43.6-6.37,12.65-10.13,26.28-16.15,39.02-6.14,13.01-9,27.13-13.25,40.77-4.42,14.21-8.57,28.51-12.16,42.96-3.1,12.47-6.09,24.98-7.62,37.74-2.31,19.32-3.28,38.65,3.1,57.53,1.03,3.04,2.19,6.06,3.6,8.93,1.11,2.25,3,3.82,5.78,3.72,2.04-.07,4.05.01,6.1-.38,4.04-.77,6.16,1.45,5.52,5.49-1.24,7.82-5.86,11.47-14.16,11.22-.45-.01-1.11.02-1.34.3-2.15,2.62-4.87,1.87-7.55,1.38-1.11-.2-2.15-.27-2.91.75-1.69,2.25-3.78,2.13-5.95.91-1.52-.85-2.63-1.13-3.25,1-.32,1.1-1.26,1.89-2.43,1.76-2.65-.29-5.19.48-7.79.62-3.04.16-5.65-.49-6.43-4.05-.26-1.17-1.14-1.61-2.29-1.92-5.98-1.59-8.87-5.41-9.85-11.56-1.05-6.57.06-13,.47-19.48.11-1.66.4-3.33-.39-4.88-3.32-6.48-2.56-13.2-1.34-20,2.34-12.97,5.42-25.75,5.69-39.14.2-9.88,1.58-19.81,1.35-29.72-.15-6.62-.04-13.22.04-19.83.09-7.23,1.63-14.06,3.79-20.88,4.57-14.44,11.26-27.8,20.38-39.85,2.87-3.79,2.34-7.97,2.67-11.99,1.51-18.45,4.26-36.68,7.87-54.83,4.62-23.23,11.88-45.56,21.87-67.02,3.73-8.01,10.15-13.95,15.5-20.71.78-.99,2.17-1.84,1.92-3.09-.3-1.42-2.07-1.07-3.18-1.53-5.32-2.2-9.66-5.38-11.34-11.28-4.06-14.23-7.12-28.74-12.17-42.68-.8-2.2-1.52-4.44-2.54-6.53-3.81-7.81-2.21-14.93,2.51-21.71.8-1.15,1.84-1.92,3.28-2.25,9.59-2.17,18.22-6.76,26.99-10.98,2.91-1.4,4.75-4.28,7-6.56,1.16-1.18,2.3-2.39,3.33-3.68,2.07-2.57,4.29-3.99,7.4-1.55.65.51,1.62.72,2.06-.13.9-1.73,1.86-3.4,2.92-5.03.54-.83-.23-1.43-.96-1.82-2.6-1.37-5.03-2.97-7.05-5.14-1.21-1.3-1.95-.66-2.7.5-2.44,3.76-5.03,7.42-8.29,10.54-.83.79-1.62,1.98-2.94,1.45-1.36-.54-.91-1.98-1.04-3.1-.59-4.92-1.18-9.85-1.78-14.77-.09-.78-.16-1.73-1.08-1.87-1.26-.19-1.25,1.07-1.49,1.8-1.52,4.64-2.62,9.34-2.15,14.3.27,2.81-1.9,1.84-2.96,1.46-3.39-1.18-6.09-3.5-8.21-6.34-5.49-7.36-8.58-15.66-9.22-24.85-.03-.38-.11-.76-.17-1.14-.25-.1-.5-.2-.74-.31ZM856.7,640.72c-.14-.92-.4-1.6-1.13-2.09-3.53-2.38-6.93-4.99-11.62-2.57-1.65.85-2.31,1.59-1.45,3.3.83,1.65,1.61,3.31,2.43,4.97,1.73,3.49,3.46,6.99,5.21,10.47.3.6.66,1.26,1.49,1.19.57-.04.78-.49.92-.98,1.38-4.77,2.76-9.53,4.14-14.3ZM939.42,566.45c-.02-1.5-1.15-2.29-2.22-2.81-1.38-.66-1.47.87-1.86,1.61-1.14,2.13-2.17,4.33-3.25,6.5-.25.51-.75,1.08-.39,1.61.47.7,1.22.28,1.86.14,2.98-.62,5.87-4.11,5.86-7.05ZM867.55,599.01c-3.01,1.99-4.97,4.3-6.62,6.62-1.38,1.94.79,3.09,2.31,3.85,1.79.9,1.84-.78,2.12-1.79.73-2.66,1.36-5.36,2.2-8.68Z"/>
    </clipPath>
  </defs>
  <rect class="cls-4" x="-.36" y=".38" width="1451.34" height="1451.34" rx="725.67" ry="725.67"/>
  <g class="cls-8">
    <circle class="cls-6" cx="-103.9" cy="1241.82" r="935.43"/>
  </g>
  <g>
    <g>
      <path class="cls-5" d="M742.71,449.85l-98.94-60.14-229.91,337.16,229.92,337.2,99.17-60.36,294.53-276.86-294.78-277ZM725.67,897.3l-69.05-70.91-37.63,20.73v-59.43l-59.25-61.08,59.25-61.07v-59.69l37.63,21.26,69.05-71.03,165.89,170.76-165.89,170.45h0Z"/>
      <polygon class="cls-5" points="641.01 638.81 641.01 814.89 796.9 726.89 641.01 638.81"/>
    </g>
    <path class="cls-1" d="M822.97,554.01c-2.42,4.16-5.93,7.72-5.94,13.13-.01,7.31-.37,14.64,1.84,21.75.65,2.09,1.52,4.12,2.56,6.9-9.55-8.7-16.94-17.91-20.06-30.18-3.68,7.36-4.88,14.96-4.12,23.57-4.94-5.99-7.42-12.31-7.77-19.32-.59-11.66,1.85-22.66,8.17-32.64.87-1.38,1.12-2.87,1.13-4.46.05-6.81-.38-13.65,1.05-20.39.12-.55.24-1.23-.34-1.6-.55-.34-.91.17-1.17.56-3.97,5.88-8.36,11.53-10.07,18.66-.3,1.24.31,2.49-.3,3.69-1.53-.13-1.23-1.96-2.66-2.5-.32,1.68-.62,3.32-.94,4.96-.22,1.12-.16,2.57-1.43,2.98-1.37.44-2.29-.74-3.23-1.58-2.68-2.41-4.4-5.47-5.68-8.76-4.2-10.76-5.26-21.88-3.57-33.29.1-.67.21-1.35.26-2.02.03-.37-.06-.76-.12-1.35-1.32.46-1.85,1.57-2.48,2.43-5.58,7.62-10.44,15.55-10.6,25.43,0,.58.1,1.4-.6,1.45-.96.06-1.15-.91-1.35-1.64-2.01-7.25-1.89-14.46.66-21.55,3.19-8.85,9.29-15.72,15.77-22.22,5.22-5.24,10.89-10.02,15.66-15.73,5.44-6.51,9.45-13.79,12.14-21.83,1.34-4.02,2.68-4.62,6.56-3.36,4,1.3,3.89,1.24,5.97-2.35,4.94-8.52,10.25-16.79,16.26-24.62,5.41-7.04,12.31-8.86,20.68-6.79,3.11.77,6.31,1.23,9.3,2.45,2.02.83,3.3.35,4.7-1.43,3.07-3.89,6.54-7.46,9.72-11.28,4.94-5.93,11.47-6.55,18.36-5.44,13.61,2.18,26.27,7.16,38.3,13.76,2.77,1.52,5.77,2.32,8.64,3.51,4.06,1.67,8.12,3.34,11.77,5.8,1.9,1.28,2.81.89,3.7-1.12,1.39-3.15,3.63-5.73,6.07-8.16,2.15-2.14,4.41-2.57,7.15-1.28,2.67,1.25,5.05,2.91,7.45,4.58,8.24,5.73,14.83,13.23,21.39,20.65,4.84,5.48,10.83,9.47,16.09,14.36,7.99,7.45,15.48,15.34,18.12,26.5.57,2.41.62,4.82.02,7.23-.19.74-.33,1.74-1.2,1.84-1.03.11-1.04-1.02-1.28-1.69-1.2-3.33-2.99-6.23-6.39-9.17,1.79,6.28,3.86,11.68,2.7,17.5-1.63-6.37-5.28-11.41-10.07-16.86,1.19,9.25,3.49,17.68.68,26.15-2.1-11.58-9.59-19.89-16.33-28.82-3.85-5.1-9.51-5.57-14.34-8.14-1.22-.65-1.58.15-1.31,1.28,4.43,18.33,6.78,37.19,15.21,54.45,4.95,10.14,10.47,20.03,14.52,30.59.66,1.72,1.13,3.52,1.62,5.3.21.74.37,1.63-.4,2.14-.81.53-1.5-.11-2.09-.59-4.81-3.84-9.94-7.19-15.24-10.29-3.42-2-6.99-3.75-10.39-5.56-.95.94-.45,1.59-.2,2.15,3.77,8.57,6.34,17.6,10.31,26.09.88,1.89.46,2.91-1.75,2.49-5.07-.96-10.11-2.04-14.9-4.05-3.03-1.27-5.44-3.34-7.8-5.85,0,4.58.01,8.88,0,13.18-.01,3.22-.49,6.4-1.07,9.56-.15.85-.22,1.95-1.23,2.12-1.28.22-1.51-1.07-1.85-1.9-1.87-4.62-4.31-8.96-6.59-13.37-.43-.84-.69-1.82-1.92-2.43-.87,3.54-1.68,7-2.58,10.44-.46,1.78-.84,3.63-1.95,5.16-.39.54-.85,1.16-1.66.94-.65-.17-.83-.83-.94-1.38-.4-1.9-.68-3.83-1.08-5.74-.11-.53-.25-1.28-.96-1.31-.71-.03-.84.67-1.05,1.21-.48,1.28-1.01,2.54-1.44,3.83-.32.98-.33,2.04.71,2.58,4.13,2.15,5.05,6.24,6.15,10.17.68,2.42,1.81,4.21,3.79,5.92,5.47,4.75,8.09,11.3,10.22,18.07,4.07,12.94,6.77,26.18,9.27,39.49,1.58,8.41,3.69,16.74,4.87,25.21,1.03,7.4.15,14.8-4.36,21.15-2.32,3.26-5.85,5.07-9.63,6.24-2.46.76-4.63-.13-6.55-1.61-3.93-3.04-7.64-6.35-11.07-9.94-1.81-1.9-1.83-4.42-2.05-6.85-1.37-15.06-4.21-29.85-8.15-44.43-.12-.45-.15-.97-.87-1.27-1.64,2.64-1.52,5.76-2.28,8.59-2.35,8.74-4.39,17.57-5.69,26.55-.75,5.16-.66,10.27,1.02,15.3,4.69,14.05,8.79,28.26,10.7,43,.4,3.08.66,6.18.84,9.29.98,16.93,1.56,33.88,1.03,50.83-.34,10.78-1.19,21.55-2.04,32.32-.83,10.57-2.29,21.08-2.56,31.7-.1,4.08,1.82,6.57,5.12,9.06,11.01,8.3,23,15.44,32.4,25.7,5.85,6.39,8.94,14.54,12.76,22.2,6.66,13.33,9.62,27.95,14.72,41.81,3.63,9.88,5.72,20.27,9.82,29.94,2.61,6.16,5.97,12.04,10.45,17.14,1.09,1.24,1.74,2.49,1.36,4.23-.42,1.89.28,3.62.96,5.37,3,7.69,6.72,15.15,7.99,23.43.49,3.17.78,6.37,1.22,9.55.24,1.76-1.04,2.89-1.66,4.27-2.95,6.62-7.08,12.12-14.38,14.4-1.05.33-1.42,1.25-2,2.02-2.28,3.04-4.51,3.54-7.46,1.24-1.62-1.26-2.75-1.2-4.37-.18-2.01,1.26-4.2,1.47-6.3-.04-.39-.28-.87-.73-1.26-.69-5.34.52-9.95-2.77-15.23-2.82-4.99-.05-9.98-.7-14.75-2.33-1.18-.4-2.35-1.04-3.3-1.84-1.72-1.45-2.44-3.21-.98-5.38,2.98-4.42,6.39-7.94,12.26-8.33,5.52-.36,8.89-3.92,10.93-8.86,1.62-3.91,2.24-8.06,2.83-12.2.24-1.68.01-3.27-1.17-4.66-2.13-2.5-.98-5.66-1.43-8.48-1.64-10.28-5.55-19.6-10.78-28.51-10.21-17.39-21.51-34.06-32.82-50.73-10.65-15.7-21.5-31.31-30.97-47.79-5.67-9.87-8.75-20.77-11.62-31.7-2.99-11.44-3.78-23.21-5.31-34.88-1.22-9.27-1.85-18.58-2.72-27.88-.57-6.14.62-12.25.49-18.4-.05-2.22-.94-3.33-2.66-4.68-4.95-3.88-9.54-4.18-15.22-1.16-3.24,1.73-5.08,3.36-5.86,6.94-3.29,15.08-7.88,29.86-14.8,43.6-6.37,12.65-10.13,26.28-16.15,39.02-6.14,13.01-9,27.13-13.25,40.77-4.42,14.21-8.57,28.51-12.16,42.96-3.1,12.47-6.09,24.98-7.62,37.74-2.31,19.32-3.28,38.65,3.1,57.53,1.03,3.04,2.19,6.06,3.6,8.93,1.11,2.25,3,3.82,5.78,3.72,2.04-.07,4.05.01,6.1-.38,4.04-.77,6.16,1.45,5.52,5.49-1.24,7.82-5.86,11.47-14.16,11.22-.45-.01-1.11.02-1.34.3-2.15,2.62-4.87,1.87-7.55,1.38-1.11-.2-2.15-.27-2.91.75-1.69,2.25-3.78,2.13-5.95.91-1.52-.85-2.63-1.13-3.25,1-.32,1.1-1.26,1.89-2.43,1.76-2.65-.29-5.19.48-7.79.62-3.04.16-5.65-.49-6.43-4.05-.26-1.17-1.14-1.61-2.29-1.92-5.98-1.59-8.87-5.41-9.85-11.56-1.05-6.57.06-13,.47-19.48.11-1.66.4-3.33-.39-4.88-3.32-6.48-2.56-13.2-1.34-20,2.34-12.97,5.42-25.75,5.69-39.14.2-9.88,1.58-19.81,1.35-29.72-.15-6.62-.04-13.22.04-19.83.09-7.23,1.63-14.06,3.79-20.88,4.57-14.44,11.26-27.8,20.38-39.85,2.87-3.79,2.34-7.97,2.67-11.99,1.51-18.45,4.26-36.68,7.87-54.83,4.62-23.23,11.88-45.56,21.87-67.02,3.73-8.01,10.15-13.95,15.5-20.71.78-.99,2.17-1.84,1.92-3.09-.3-1.42-2.07-1.07-3.18-1.53-5.32-2.2-9.66-5.38-11.34-11.28-4.06-14.23-7.12-28.74-12.17-42.68-.8-2.2-1.52-4.44-2.54-6.53-3.81-7.81-2.21-14.93,2.51-21.71.8-1.15,1.84-1.92,3.28-2.25,9.59-2.17,18.22-6.76,26.99-10.98,2.91-1.4,4.75-4.28,7-6.56,1.16-1.18,2.3-2.39,3.33-3.68,2.07-2.57,4.29-3.99,7.4-1.55.65.51,1.62.72,2.06-.13.9-1.73,1.86-3.4,2.92-5.03.54-.83-.23-1.43-.96-1.82-2.6-1.37-5.03-2.97-7.05-5.14-1.21-1.3-1.95-.66-2.7.5-2.44,3.76-5.03,7.42-8.29,10.54-.83.79-1.62,1.98-2.94,1.45-1.36-.54-.91-1.98-1.04-3.1-.59-4.92-1.18-9.85-1.78-14.77-.09-.78-.16-1.73-1.08-1.87-1.26-.19-1.25,1.07-1.49,1.8-1.52,4.64-2.62,9.34-2.15,14.3.27,2.81-1.9,1.84-2.96,1.46-3.39-1.18-6.09-3.5-8.21-6.34-5.49-7.36-8.58-15.66-9.22-24.85-.03-.38-.11-.76-.17-1.14-.25-.1-.5-.2-.74-.31ZM856.7,640.72c-.14-.92-.4-1.6-1.13-2.09-3.53-2.38-6.93-4.99-11.62-2.57-1.65.85-2.31,1.59-1.45,3.3.83,1.65,1.61,3.31,2.43,4.97,1.73,3.49,3.46,6.99,5.21,10.47.3.6.66,1.26,1.49,1.19.57-.04.78-.49.92-.98,1.38-4.77,2.76-9.53,4.14-14.3ZM939.42,566.45c-.02-1.5-1.15-2.29-2.22-2.81-1.38-.66-1.47.87-1.86,1.61-1.14,2.13-2.17,4.33-3.25,6.5-.25.51-.75,1.08-.39,1.61.47.7,1.22.28,1.86.14,2.98-.62,5.87-4.11,5.86-7.05ZM867.55,599.01c-3.01,1.99-4.97,4.3-6.62,6.62-1.38,1.94.79,3.09,2.31,3.85,1.79.9,1.84-.78,2.12-1.79.73-2.66,1.36-5.36,2.2-8.68Z"/>
    <g class="cls-7">
      <g>
        <path class="cls-3" d="M742.71,449.85l-98.94-60.14-229.91,337.16,229.92,337.2,99.17-60.36,294.53-276.86-294.78-277ZM725.67,897.3l-69.05-70.91-37.63,20.73v-59.43l-59.25-61.08,59.25-61.07v-59.69l37.63,21.26,69.05-71.03,165.89,170.76-165.89,170.45h0Z"/>
        <polygon class="cls-3" points="641.01 638.81 641.01 814.89 796.9 726.89 641.01 638.81"/>
      </g>
    </g>
  </g>
</svg>