<?xml version="1.0" encoding="UTF-8"?>
<svg id="_图层_1" data-name="图层 1" xmlns="http://www.w3.org/2000/svg" xmlns:xlink="http://www.w3.org/1999/xlink" viewBox="0 0 1451.34 1451.34">
  <defs>
    <style>
      .cls-1 {
        fill: #b2dfdb;
      }

      .cls-1, .cls-2, .cls-3, .cls-4, .cls-5, .cls-6 {
        stroke-width: 0px;
      }

      .cls-2 {
        fill: none;
      }

      .cls-7 {
        clip-path: url(#clippath-1);
      }

      .cls-3 {
        fill: #81fcf0;
      }

      .cls-4 {
        fill: url(#_未命名的渐变_13);
      }

      .cls-5 {
        fill: #fff;
      }

      .cls-8 {
        clip-path: url(#clippath);
      }

      .cls-6 {
        fill: #26a69b;
      }
    </style>
    <linearGradient id="_未命名的渐变_13" data-name="未命名的渐变 13" x1="1384.56" y1="66.8" x2="66.06" y2="1385.3" gradientUnits="userSpaceOnUse">
      <stop offset="0" stop-color="#4db6ac"/>
      <stop offset="1" stop-color="#00897b"/>
    </linearGradient>
    <clipPath id="clippath">
      <rect class="cls-2" width="1451.34" height="1451.34" rx="226.77" ry="226.77"/>
    </clipPath>
    <clipPath id="clippath-1">
      <path class="cls-2" d="M923.69,385.22c-4.79,8.22-11.73,15.27-11.75,25.96-.03,14.45-.74,28.95,3.63,43,1.29,4.14,3.01,8.15,5.07,13.64-18.89-17.2-33.5-35.42-39.66-59.68-7.27,14.54-9.65,29.58-8.14,46.6-9.77-11.85-14.67-24.34-15.36-38.19-1.16-23.06,3.67-44.81,16.15-64.53,1.73-2.73,2.21-5.68,2.23-8.82.1-13.47-.75-26.99,2.08-40.32.23-1.08.48-2.44-.68-3.16-1.08-.67-1.8.33-2.32,1.1-7.85,11.63-16.52,22.79-19.92,36.89-.59,2.46.62,4.93-.59,7.29-3.02-.26-2.42-3.87-5.27-4.95-.63,3.33-1.22,6.57-1.87,9.81-.44,2.22-.31,5.08-2.82,5.89-2.72.88-4.53-1.47-6.39-3.13-5.3-4.76-8.69-10.81-11.23-17.31-8.29-21.28-10.41-43.26-7.05-65.82.2-1.33.42-2.66.52-4,.05-.74-.13-1.5-.25-2.68-2.62.91-3.67,3.11-4.9,4.8-11.02,15.06-20.64,30.74-20.95,50.29-.02,1.14.21,2.77-1.18,2.86-1.89.12-2.27-1.8-2.67-3.24-3.97-14.33-3.74-28.6,1.31-42.6,6.31-17.5,18.38-31.08,31.18-43.94,10.32-10.36,21.53-19.82,30.96-31.09,10.76-12.88,18.69-27.26,24.01-43.17,2.66-7.94,5.3-9.13,12.97-6.64,7.91,2.56,7.7,2.44,11.81-4.65,9.76-16.85,20.27-33.2,32.15-48.67,10.69-13.92,24.34-17.52,40.89-13.42,6.16,1.52,12.48,2.44,18.38,4.85,3.99,1.63,6.53.69,9.3-2.82,6.07-7.69,12.93-14.76,19.21-22.3,9.77-11.72,22.68-12.94,36.31-10.76,26.9,4.32,51.94,14.16,75.72,27.21,5.48,3.01,11.41,4.59,17.09,6.93,8.03,3.31,16.06,6.61,23.28,11.47,3.75,2.53,5.56,1.77,7.31-2.22,2.75-6.24,7.17-11.33,12-16.13,4.25-4.23,8.72-5.08,14.14-2.54,5.27,2.47,9.99,5.76,14.73,9.06,16.3,11.33,29.32,26.15,42.29,40.83,9.57,10.83,21.42,18.72,31.81,28.4,15.81,14.73,30.61,30.32,35.83,52.39,1.13,4.77,1.24,9.54.04,14.29-.37,1.46-.65,3.45-2.38,3.64-2.04.22-2.05-2.01-2.53-3.33-2.36-6.59-5.91-12.32-12.63-18.14,3.54,12.41,7.63,23.08,5.33,34.6-3.22-12.59-10.45-22.56-19.92-33.33,2.35,18.29,6.91,34.95,1.35,51.7-4.15-22.89-18.96-39.34-32.29-56.99-7.62-10.09-18.8-11.02-28.35-16.09-2.41-1.28-3.13.3-2.59,2.53,8.75,36.24,13.42,73.53,30.08,107.67,9.79,20.05,20.69,39.6,28.72,60.49,1.31,3.4,2.23,6.96,3.21,10.49.41,1.47.73,3.23-.8,4.23-1.61,1.05-2.96-.23-4.13-1.16-9.5-7.59-19.66-14.22-30.13-20.35-6.76-3.96-13.82-7.42-20.54-11-1.88,1.85-.88,3.14-.39,4.25,7.45,16.94,12.54,34.81,20.38,51.59,1.75,3.74.9,5.75-3.46,4.93-10.03-1.89-19.98-4.04-29.47-8.01-5.99-2.51-10.75-6.6-15.42-11.56,0,9.07.03,17.56,0,26.06-.03,6.37-.97,12.65-2.11,18.9-.31,1.69-.44,3.85-2.44,4.19-2.54.43-2.99-2.11-3.66-3.75-3.7-9.13-8.51-17.71-13.02-26.43-.85-1.65-1.37-3.6-3.8-4.81-1.72,7-3.32,13.85-5.09,20.64-.92,3.53-1.66,7.17-3.86,10.21-.77,1.06-1.69,2.29-3.29,1.86-1.29-.34-1.63-1.65-1.86-2.72-.79-3.76-1.35-7.58-2.14-11.34-.22-1.05-.49-2.52-1.9-2.59-1.41-.06-1.67,1.33-2.07,2.39-.95,2.53-1.99,5.02-2.84,7.58-.64,1.94-.65,4.03,1.41,5.1,8.16,4.25,9.99,12.35,12.17,20.11,1.34,4.78,3.58,8.32,7.49,11.71,10.82,9.4,16,22.34,20.21,35.73,8.04,25.58,13.39,51.77,18.33,78.08,3.12,16.63,7.3,33.11,9.63,49.85,2.04,14.63.31,29.26-8.62,41.81-4.58,6.44-11.57,10.03-19.05,12.35-4.86,1.51-9.16-.26-12.95-3.18-7.78-6.01-15.1-12.55-21.89-19.66-3.58-3.75-3.61-8.75-4.04-13.54-2.7-29.78-8.32-59.02-16.12-87.86-.24-.9-.29-1.92-1.72-2.52-3.24,5.23-3,11.39-4.5,16.98-4.64,17.29-8.68,34.74-11.25,52.49-1.48,10.2-1.3,20.31,2.02,30.25,9.27,27.78,17.37,55.88,21.16,85.02.79,6.08,1.31,12.22,1.67,18.38,1.93,33.48,3.09,66.99,2.04,100.51-.67,21.32-2.35,42.61-4.03,63.9-1.65,20.89-4.53,41.69-5.06,62.67-.2,8.07,3.59,12.99,10.12,17.91,21.77,16.4,45.48,30.52,64.07,50.82,11.57,12.63,17.67,28.76,25.23,43.9,13.16,26.36,19.02,55.26,29.11,82.67,7.19,19.53,11.3,40.07,19.42,59.2,5.17,12.17,11.8,23.81,20.66,33.88,2.16,2.46,3.44,4.93,2.68,8.36-.83,3.73.55,7.16,1.9,10.63,5.94,15.21,13.28,29.96,15.79,46.33.96,6.27,1.55,12.6,2.41,18.88.48,3.47-2.06,5.71-3.28,8.44-5.84,13.09-13.99,23.97-28.44,28.48-2.07.64-2.81,2.47-3.96,3.99-4.5,6.01-8.92,7-14.74,2.45-3.2-2.5-5.43-2.37-8.63-.35-3.98,2.5-8.31,2.9-12.45-.07-.78-.56-1.71-1.45-2.5-1.37-10.57,1.03-19.67-5.47-30.11-5.57-9.86-.1-19.72-1.38-29.16-4.61-2.33-.8-4.65-2.05-6.52-3.63-3.4-2.88-4.83-6.36-1.94-10.64,5.9-8.74,12.63-15.71,24.24-16.47,10.91-.72,17.57-7.75,21.61-17.52,3.2-7.74,4.42-15.93,5.6-24.13.48-3.32.02-6.46-2.32-9.22-4.2-4.95-1.93-11.18-2.82-16.76-3.25-20.32-10.97-38.76-21.31-56.37-20.19-34.38-42.52-67.34-64.89-100.31-21.07-31.05-42.52-61.92-61.24-94.5-11.21-19.51-17.31-41.06-22.97-62.69-5.92-22.61-7.47-45.89-10.51-68.96-2.41-18.33-3.67-36.75-5.38-55.13-1.13-12.14,1.23-24.23.97-36.39-.09-4.38-1.86-6.59-5.26-9.25-9.78-7.66-18.87-8.27-30.1-2.3-6.42,3.41-10.04,6.64-11.58,13.73-6.5,29.82-15.58,59.03-29.27,86.21-12.6,25.02-20.03,51.96-31.92,77.16-12.14,25.73-17.8,53.64-26.19,80.62-8.75,28.11-16.94,56.37-24.05,84.95-6.13,24.65-12.05,49.4-15.06,74.63-4.57,38.2-6.49,76.43,6.13,113.76,2.03,6.01,4.33,11.98,7.13,17.65,2.2,4.45,5.93,7.54,11.43,7.35,4.02-.14,8.01.03,12.06-.74,7.99-1.52,12.18,2.87,10.91,10.86-2.45,15.46-11.59,22.69-27.99,22.19-.9-.03-2.19.03-2.64.59-4.25,5.17-9.63,3.71-14.92,2.73-2.19-.41-4.25-.54-5.76,1.47-3.34,4.45-7.47,4.2-11.76,1.8-3-1.68-5.21-2.23-6.42,1.97-.63,2.18-2.49,3.73-4.81,3.48-5.25-.56-10.27.94-15.4,1.22-6.01.32-11.18-.96-12.72-8.01-.51-2.31-2.25-3.18-4.54-3.79-11.82-3.15-17.53-10.69-19.47-22.86-2.08-12.99.12-25.7.94-38.52.21-3.29.79-6.59-.78-9.65-6.57-12.82-5.06-26.1-2.64-39.54,4.62-25.65,10.72-50.92,11.26-77.38.4-19.53,3.12-39.17,2.68-58.77-.29-13.1-.07-26.13.08-39.21.17-14.3,3.22-27.81,7.49-41.29,9.03-28.55,22.26-54.97,40.3-78.79,5.67-7.49,4.63-15.76,5.28-23.7,3-36.47,8.42-72.54,15.56-108.41,9.14-45.94,23.49-90.08,43.24-132.52,7.37-15.85,20.07-27.58,30.65-40.95,1.54-1.95,4.3-3.65,3.79-6.11-.58-2.82-4.09-2.11-6.29-3.02-10.53-4.34-19.1-10.64-22.43-22.31-8.04-28.13-14.08-56.83-24.07-84.4-1.57-4.34-3-8.78-5.02-12.92-7.54-15.43-4.37-29.51,4.97-42.92,1.59-2.28,3.63-3.8,6.48-4.44,18.97-4.29,36.04-13.37,53.36-21.7,5.75-2.76,9.39-8.46,13.85-12.97,2.3-2.33,4.55-4.73,6.59-7.27,4.08-5.08,8.49-7.88,14.63-3.07,1.29,1.01,3.19,1.43,4.07-.25,1.78-3.42,3.69-6.71,5.78-9.94,1.07-1.65-.46-2.83-1.9-3.59-5.14-2.71-9.95-5.88-13.93-10.16-2.39-2.57-3.85-1.31-5.35,1-4.83,7.44-9.95,14.66-16.38,20.84-1.63,1.57-3.21,3.92-5.82,2.88-2.68-1.07-1.8-3.91-2.07-6.13-1.16-9.74-2.34-19.47-3.53-29.21-.19-1.54-.32-3.42-2.13-3.7-2.48-.38-2.47,2.11-2.94,3.55-3.01,9.17-5.19,18.48-4.25,28.28.53,5.56-3.75,3.63-5.86,2.9-6.71-2.34-12.03-6.92-16.23-12.54-10.86-14.56-16.97-30.96-18.24-49.13-.05-.75-.23-1.5-.35-2.25-.49-.2-.98-.4-1.47-.61ZM990.4,556.67c-.27-1.82-.79-3.16-2.23-4.13-6.98-4.71-13.7-9.86-22.99-5.08-3.27,1.68-4.57,3.14-2.87,6.53,1.64,3.26,3.19,6.55,4.81,9.82,3.42,6.91,6.84,13.82,10.31,20.71.6,1.19,1.3,2.48,2.95,2.36,1.12-.08,1.54-.96,1.82-1.94,2.72-9.42,5.46-18.84,8.19-28.27ZM1153.95,409.81c-.04-2.96-2.27-4.53-4.39-5.56-2.73-1.31-2.9,1.73-3.68,3.19-2.26,4.22-4.3,8.56-6.42,12.85-.5,1.01-1.48,2.13-.77,3.18.94,1.39,2.41.55,3.69.28,5.89-1.23,11.62-8.12,11.58-13.95ZM1011.84,474.2c-5.96,3.94-9.82,8.5-13.09,13.1-2.73,3.83,1.55,6.1,4.57,7.62,3.53,1.77,3.63-1.55,4.18-3.54,1.45-5.27,2.7-10.59,4.35-17.17Z"/>
    </clipPath>
  </defs>
  <rect class="cls-4" x="-.36" y=".38" width="1451.34" height="1451.34" rx="226.77" ry="226.77"/>
  <g class="cls-8">
    <circle class="cls-6" cx="-153.57" cy="1223.97" r="885.83"/>
  </g>
  <g>
    <path class="cls-5" d="M764.99,179.27l-195.63-118.92L114.77,727.02l454.62,666.73,196.08-119.34,582.37-547.43L764.99,179.27ZM731.31,1063.99l-136.54-140.2-74.41,40.99v-117.51l-117.16-120.77,117.16-120.75v-118.02l74.41,42.04,136.54-140.45,328,337.63-328,337.03h0Z"/>
    <polygon class="cls-5" points="563.92 552.89 563.92 901.05 872.15 727.05 563.92 552.89"/>
  </g>
  <path class="cls-1" d="M923.69,385.22c-4.79,8.22-11.73,15.27-11.75,25.96-.03,14.45-.74,28.95,3.63,43,1.29,4.14,3.01,8.15,5.07,13.64-18.89-17.2-33.5-35.42-39.66-59.68-7.27,14.54-9.65,29.58-8.14,46.6-9.77-11.85-14.67-24.34-15.36-38.19-1.16-23.06,3.67-44.81,16.15-64.53,1.73-2.73,2.21-5.68,2.23-8.82.1-13.47-.75-26.99,2.08-40.32.23-1.08.48-2.44-.68-3.16-1.08-.67-1.8.33-2.32,1.1-7.85,11.63-16.52,22.79-19.92,36.89-.59,2.46.62,4.93-.59,7.29-3.02-.26-2.42-3.87-5.27-4.95-.63,3.33-1.22,6.57-1.87,9.81-.44,2.22-.31,5.08-2.82,5.89-2.72.88-4.53-1.47-6.39-3.13-5.3-4.76-8.69-10.81-11.23-17.31-8.29-21.28-10.41-43.26-7.05-65.82.2-1.33.42-2.66.52-4,.05-.74-.13-1.5-.25-2.68-2.62.91-3.67,3.11-4.9,4.8-11.02,15.06-20.64,30.74-20.95,50.29-.02,1.14.21,2.77-1.18,2.86-1.89.12-2.27-1.8-2.67-3.24-3.97-14.33-3.74-28.6,1.31-42.6,6.31-17.5,18.38-31.08,31.18-43.94,10.32-10.36,21.53-19.82,30.96-31.09,10.76-12.88,18.69-27.26,24.01-43.17,2.66-7.94,5.3-9.13,12.97-6.64,7.91,2.56,7.7,2.44,11.81-4.65,9.76-16.85,20.27-33.2,32.15-48.67,10.69-13.92,24.34-17.52,40.89-13.42,6.16,1.52,12.48,2.44,18.38,4.85,3.99,1.63,6.53.69,9.3-2.82,6.07-7.69,12.93-14.76,19.21-22.3,9.77-11.72,22.68-12.94,36.31-10.76,26.9,4.32,51.94,14.16,75.72,27.21,5.48,3.01,11.41,4.59,17.09,6.93,8.03,3.31,16.06,6.61,23.28,11.47,3.75,2.53,5.56,1.77,7.31-2.22,2.75-6.24,7.17-11.33,12-16.13,4.25-4.23,8.72-5.08,14.14-2.54,5.27,2.47,9.99,5.76,14.73,9.06,16.3,11.33,29.32,26.15,42.29,40.83,9.57,10.83,21.42,18.72,31.81,28.4,15.81,14.73,30.61,30.32,35.83,52.39,1.13,4.77,1.24,9.54.04,14.29-.37,1.46-.65,3.45-2.38,3.64-2.04.22-2.05-2.01-2.53-3.33-2.36-6.59-5.91-12.32-12.63-18.14,3.54,12.41,7.63,23.08,5.33,34.6-3.22-12.59-10.45-22.56-19.92-33.33,2.35,18.29,6.91,34.95,1.35,51.7-4.15-22.89-18.96-39.34-32.29-56.99-7.62-10.09-18.8-11.02-28.35-16.09-2.41-1.28-3.13.3-2.59,2.53,8.75,36.24,13.42,73.53,30.08,107.67,9.79,20.05,20.69,39.6,28.72,60.49,1.31,3.4,2.23,6.96,3.21,10.49.41,1.47.73,3.23-.8,4.23-1.61,1.05-2.96-.23-4.13-1.16-9.5-7.59-19.66-14.22-30.13-20.35-6.76-3.96-13.82-7.42-20.54-11-1.88,1.85-.88,3.14-.39,4.25,7.45,16.94,12.54,34.81,20.38,51.59,1.75,3.74.9,5.75-3.46,4.93-10.03-1.89-19.98-4.04-29.47-8.01-5.99-2.51-10.75-6.6-15.42-11.56,0,9.07.03,17.56,0,26.06-.03,6.37-.97,12.65-2.11,18.9-.31,1.69-.44,3.85-2.44,4.19-2.54.43-2.99-2.11-3.66-3.75-3.7-9.13-8.51-17.71-13.02-26.43-.85-1.65-1.37-3.6-3.8-4.81-1.72,7-3.32,13.85-5.09,20.64-.92,3.53-1.66,7.17-3.86,10.21-.77,1.06-1.69,2.29-3.29,1.86-1.29-.34-1.63-1.65-1.86-2.72-.79-3.76-1.35-7.58-2.14-11.34-.22-1.05-.49-2.52-1.9-2.59-1.41-.06-1.67,1.33-2.07,2.39-.95,2.53-1.99,5.02-2.84,7.58-.64,1.94-.65,4.03,1.41,5.1,8.16,4.25,9.99,12.35,12.17,20.11,1.34,4.78,3.58,8.32,7.49,11.71,10.82,9.4,16,22.34,20.21,35.73,8.04,25.58,13.39,51.77,18.33,78.08,3.12,16.63,7.3,33.11,9.63,49.85,2.04,14.63.31,29.26-8.62,41.81-4.58,6.44-11.57,10.03-19.05,12.35-4.86,1.51-9.16-.26-12.95-3.18-7.78-6.01-15.1-12.55-21.89-19.66-3.58-3.75-3.61-8.75-4.04-13.54-2.7-29.78-8.32-59.02-16.12-87.86-.24-.9-.29-1.92-1.72-2.52-3.24,5.23-3,11.39-4.5,16.98-4.64,17.29-8.68,34.74-11.25,52.49-1.48,10.2-1.3,20.31,2.02,30.25,9.27,27.78,17.37,55.88,21.16,85.02.79,6.08,1.31,12.22,1.67,18.38,1.93,33.48,3.09,66.99,2.04,100.51-.67,21.32-2.35,42.61-4.03,63.9-1.65,20.89-4.53,41.69-5.06,62.67-.2,8.07,3.59,12.99,10.12,17.91,21.77,16.4,45.48,30.52,64.07,50.82,11.57,12.63,17.67,28.76,25.23,43.9,13.16,26.36,19.02,55.26,29.11,82.67,7.19,19.53,11.3,40.07,19.42,59.2,5.17,12.17,11.8,23.81,20.66,33.88,2.16,2.46,3.44,4.93,2.68,8.36-.83,3.73.55,7.16,1.9,10.63,5.94,15.21,13.28,29.96,15.79,46.33.96,6.27,1.55,12.6,2.41,18.88.48,3.47-2.06,5.71-3.28,8.44-5.84,13.09-13.99,23.97-28.44,28.48-2.07.64-2.81,2.47-3.96,3.99-4.5,6.01-8.92,7-14.74,2.45-3.2-2.5-5.43-2.37-8.63-.35-3.98,2.5-8.31,2.9-12.45-.07-.78-.56-1.71-1.45-2.5-1.37-10.57,1.03-19.67-5.47-30.11-5.57-9.86-.1-19.72-1.38-29.16-4.61-2.33-.8-4.65-2.05-6.52-3.63-3.4-2.88-4.83-6.36-1.94-10.64,5.9-8.74,12.63-15.71,24.24-16.47,10.91-.72,17.57-7.75,21.61-17.52,3.2-7.74,4.42-15.93,5.6-24.13.48-3.32.02-6.46-2.32-9.22-4.2-4.95-1.93-11.18-2.82-16.76-3.25-20.32-10.97-38.76-21.31-56.37-20.19-34.38-42.52-67.34-64.89-100.31-21.07-31.05-42.52-61.92-61.24-94.5-11.21-19.51-17.31-41.06-22.97-62.69-5.92-22.61-7.47-45.89-10.51-68.96-2.41-18.33-3.67-36.75-5.38-55.13-1.13-12.14,1.23-24.23.97-36.39-.09-4.38-1.86-6.59-5.26-9.25-9.78-7.66-18.87-8.27-30.1-2.3-6.42,3.41-10.04,6.64-11.58,13.73-6.5,29.82-15.58,59.03-29.27,86.21-12.6,25.02-20.03,51.96-31.92,77.16-12.14,25.73-17.8,53.64-26.19,80.62-8.75,28.11-16.94,56.37-24.05,84.95-6.13,24.65-12.05,49.4-15.06,74.63-4.57,38.2-6.49,76.43,6.13,113.76,2.03,6.01,4.33,11.98,7.13,17.65,2.2,4.45,5.93,7.54,11.43,7.35,4.02-.14,8.01.03,12.06-.74,7.99-1.52,12.18,2.87,10.91,10.86-2.45,15.46-11.59,22.69-27.99,22.19-.9-.03-2.19.03-2.64.59-4.25,5.17-9.63,3.71-14.92,2.73-2.19-.41-4.25-.54-5.76,1.47-3.34,4.45-7.47,4.2-11.76,1.8-3-1.68-5.21-2.23-6.42,1.97-.63,2.18-2.49,3.73-4.81,3.48-5.25-.56-10.27.94-15.4,1.22-6.01.32-11.18-.96-12.72-8.01-.51-2.31-2.25-3.18-4.54-3.79-11.82-3.15-17.53-10.69-19.47-22.86-2.08-12.99.12-25.7.94-38.52.21-3.29.79-6.59-.78-9.65-6.57-12.82-5.06-26.1-2.64-39.54,4.62-25.65,10.72-50.92,11.26-77.38.4-19.53,3.12-39.17,2.68-58.77-.29-13.1-.07-26.13.08-39.21.17-14.3,3.22-27.81,7.49-41.29,9.03-28.55,22.26-54.97,40.3-78.79,5.67-7.49,4.63-15.76,5.28-23.7,3-36.47,8.42-72.54,15.56-108.41,9.14-45.94,23.49-90.08,43.24-132.52,7.37-15.85,20.07-27.58,30.65-40.95,1.54-1.95,4.3-3.65,3.79-6.11-.58-2.82-4.09-2.11-6.29-3.02-10.53-4.34-19.1-10.64-22.43-22.31-8.04-28.13-14.08-56.83-24.07-84.4-1.57-4.34-3-8.78-5.02-12.92-7.54-15.43-4.37-29.51,4.97-42.92,1.59-2.28,3.63-3.8,6.48-4.44,18.97-4.29,36.04-13.37,53.36-21.7,5.75-2.76,9.39-8.46,13.85-12.97,2.3-2.33,4.55-4.73,6.59-7.27,4.08-5.08,8.49-7.88,14.63-3.07,1.29,1.01,3.19,1.43,4.07-.25,1.78-3.42,3.69-6.71,5.78-9.94,1.07-1.65-.46-2.83-1.9-3.59-5.14-2.71-9.95-5.88-13.93-10.16-2.39-2.57-3.85-1.31-5.35,1-4.83,7.44-9.95,14.66-16.38,20.84-1.63,1.57-3.21,3.92-5.82,2.88-2.68-1.07-1.8-3.91-2.07-6.13-1.16-9.74-2.34-19.47-3.53-29.21-.19-1.54-.32-3.42-2.13-3.7-2.48-.38-2.47,2.11-2.94,3.55-3.01,9.17-5.19,18.48-4.25,28.28.53,5.56-3.75,3.63-5.86,2.9-6.71-2.34-12.03-6.92-16.23-12.54-10.86-14.56-16.97-30.96-18.24-49.13-.05-.75-.23-1.5-.35-2.25-.49-.2-.98-.4-1.47-.61ZM990.4,556.67c-.27-1.82-.79-3.16-2.23-4.13-6.98-4.71-13.7-9.86-22.99-5.08-3.27,1.68-4.57,3.14-2.87,6.53,1.64,3.26,3.19,6.55,4.81,9.82,3.42,6.91,6.84,13.82,10.31,20.71.6,1.19,1.3,2.48,2.95,2.36,1.12-.08,1.54-.96,1.82-1.94,2.72-9.42,5.46-18.84,8.19-28.27ZM1153.95,409.81c-.04-2.96-2.27-4.53-4.39-5.56-2.73-1.31-2.9,1.73-3.68,3.19-2.26,4.22-4.3,8.56-6.42,12.85-.5,1.01-1.48,2.13-.77,3.18.94,1.39,2.41.55,3.69.28,5.89-1.23,11.62-8.12,11.58-13.95ZM1011.84,474.2c-5.96,3.94-9.82,8.5-13.09,13.1-2.73,3.83,1.55,6.1,4.57,7.62,3.53,1.77,3.63-1.55,4.18-3.54,1.45-5.27,2.7-10.59,4.35-17.17Z"/>
  <g class="cls-7">
    <g>
      <path class="cls-3" d="M764.99,179.27l-195.63-118.92L114.77,727.02l454.62,666.73,196.08-119.34,582.37-547.43L764.99,179.27ZM731.31,1063.99l-136.54-140.2-74.41,40.99v-117.51l-117.16-120.77,117.16-120.75v-118.02l74.41,42.04,136.54-140.45,328,337.63-328,337.03h0Z"/>
      <polygon class="cls-3" points="563.92 552.89 563.92 901.05 872.15 727.05 563.92 552.89"/>
    </g>
  </g>
</svg>